<svg xmlns="http://www.w3.org/2000/svg" viewBox="0 0 86.9 104.6"><path d="M46.5 0c1.8.3 3.7.5 5.5.9A38 38 0 0181.6 29c1.8 6.2 2 12.6 1.8 19v6.3a16.8 16.8 0 011.2-1.4 12 12 0 011.4-1 6.9 6.9 0 01.7 1.4c.5 2 .2 2.5-1.3 3.3-.3.1-.4.6-.6.9a9 9 0 00-.2 1c0 .1-.2.3-.1.4.7.7 0 1.3-.2 2l-2 6.2-1.3 5a14.2 14.2 0 011.5-.6c.7-.1 1.5-.3 1.7.7a.4.4 0 00.2.3c1.9 1.5.9 2.6-.7 3.5a46.6 46.6 0 00-4 2.9c1.4-.3 2.5-.1 3.3 1l1.1 2a.9.9 0 01-.9 1.4 2.1 2.1 0 00-1.7.7 2 2 0 01-1.6.3 6.8 6.8 0 00-4.9 1.2c-.6.3-1 .8-.1 1.3 1 .7 1 1.9 1.3 3a1.1 1.1 0 01-.5.8 12.6 12.6 0 01-1.3.5 2.5 2.5 0 00-1 .7 4.5 4.5 0 01-3.3 1.5c-3-.2-6.1-.3-8.7 2l.4.4a2.4 2.4 0 01.1 3.3 1 1 0 01-.9.1 1.2 1.2 0 00-1.5.4 1.1 1.1 0 01-.7.4l-3.2-.2c-.3 0-.8 0-1 .2a1 1 0 01-1.3.4 4.6 4.6 0 00-3.6.5c-.4.2-.6 1-.6 1.4 0 1-.6 1.3-1.4 1.6a13 13 0 01-5.6.7 12 12 0 01-3-.9c-.3 0-.4-.4-.5-.7a14.3 14.3 0 01-.4-1.4c-.8-.2-1.6.1-2.1-.8-.1-.2-.7 0-1 0-.7 0-1.3 0-1.3-1.2-1 1.7-2.3 1.2-3.6.7a2.9 2.9 0 00-1.5 0 2.4 2.4 0 01-2.2-.3 1.6 1.6 0 00-.8-.2c-1.1-.1-1.5-1-1-2a1.2 1.2 0 00.3-.7 1.8 1.8 0 011-2.2 7.4 7.4 0 00-3.7-1.5 3.8 3.8 0 01-1.5-.3 2.6 2.6 0 00-2.5 0 3.8 3.8 0 01-4.8-1.2c-.6.4-1.3.7-2-.2-.2-.3-1-.2-1.5-.3l-.2-.2 1.2-.7c-.9-1.8-.4-2.6 2.5-4.5a4.6 4.6 0 00-4.6-1.5 5.8 5.8 0 01-2-.4c-.3 0-.8-.3-1-.2a2.5 2.5 0 01-2.7-.5 1.4 1.4 0 010-2.4 17.2 17.2 0 012-1c-.3-.5-.6-1.1.2-1.7-.9-.8-.9-.9.1-1.6L3 76.2a1.3 1.3 0 01-.8-.5 13.9 13.9 0 01-.5-2v-.3c-.4-.5-.5-1.2.1-1.5a3.4 3.4 0 012-.3 17.6 17.6 0 012.6.8 5.5 5.5 0 00-.2-.9L3.8 65c-.3-.7-.4-1.4-1.2-1.8a1 1 0 01-.4-1c.5-.7.1-1.2-.1-1.7-.6-1.1-.4-1.5.8-1.5-.3-.7-.5-1.4-.9-2 0-.2-.3-.3-.5-.3-.4-.3-1.2-.4-1.3-.7a2.4 2.4 0 01.4-2.4c1.3-1.4 1.8-1.3 3.6.3L4 52.4c0-6.1-.6-12.2.5-18.3 2.2-12 7.8-21.7 18.3-28.3a38.4 38.4 0 0117-5.6 9.1 9.1 0 00.9-.2zm2 89.1l-2.8-2-.7.1v.2l3.5 1.7c-.5 1.3-.4 1.6.9 2.2a8.5 8.5 0 00-.1-1.5l-.8-.7zm-2.8.2l.2-.6c-.6-.4-1 .1-1.1.5-.4.7-.7 1.4-.2 2.1.2.2.7.1 1 .2l.1-.3c-.6-.2-1.1-.5-.6-1.2l.1 1 2.6-1.7c-.7-.5-1.4-.2-2.1 0zM28.4 60.6c1.3-.2 2-.6 2-1.4l-2 1.4 1.3-1.6-.2-.2-2.9 2.6a1.7 1.7 0 00-.3 1 12.7 12.7 0 00.1 2A3.4 3.4 0 0126 67a5.6 5.6 0 00-.5 1.5c1.6-2 1.7-2.1 1.4-4-.2-1.6 0-3 1.6-4zM25 77.5a13.7 13.7 0 001.1-1.8c.3-.6 0-1-.5-1l-1.4 2.8h.9l-.6.6-.4 2.5a3.3 3.3 0 002.4-.3c.3-.2.6-.7.6-.9-.2-.4-.6-.7-1-1l-.7.5a5.3 5.3 0 000-1c0-.2-.3-.3-.4-.4zM8.5 79c-.7-1.7-1.7-2.2-2.9-1.4L8.5 79c0 1.2-.7.6-1.2.5a13 13 0 01-1.5-.6l-.2.3 1.3 1.6c-2.3-.2-3.8.5-3.6 1.8l.7-.3-.2.7c1.6 1 2.6-.1 3.6-1-.1.5-.4 1.2-.2 1.4a1.7 1.7 0 001.4.3 4.1 4.1 0 013.8.4 11 11 0 014 3.7l-1.7-1.1a1 1 0 00-.7-.1 4 4 0 00-1.3.7c-.7.6-1.5 1-1.4 2.2A5 5 0 0117 89a32.7 32.7 0 00-3.3-.3 1.9 1.9 0 00-2.1 2c2.5-2 3.8-2 7.3 0a16.8 16.8 0 00-2.5-.8 9.3 9.3 0 00-2.9 0c-.7.1-1.3.8-1 1.9a9.2 9.2 0 011.2-.9 7.7 7.7 0 012-.6l.7.7a1 1 0 00.6.1 7.1 7.1 0 011.2 0 3.7 3.7 0 011 .4l-.1.3h-4.7v.3l1.4.4.8.1c.3.6.7.2 1 0a3.5 3.5 0 013.6-.1c.5.2 1.2.5 1.6.3.8-.4 1.3.2 1.8.4.3 0 .5.2.8.3L25 93l2.2 1.3-2.5-2.4-6.1-6a3.4 3.4 0 01-.5-.6l2.1.7-1-2a3.4 3.4 0 011.2 1.5 15 15 0 003.6 5.2 36.7 36.7 0 003 2.5l.2-.2c-3.4-2.7-5.7-6-5.8-10.7l-1.7.2a2.9 2.9 0 00.7-.4 5.5 5.5 0 00.7-.8 4.4 4.4 0 00-.8-.6 4.5 4.5 0 00-1-.1 2.8 2.8 0 011.1-.6l2.3-.4c.6-.1 1.3-.4 1.1-1.2s-.6-1-1.4-1l-2.5.1a6 6 0 01-1.2-.3V77h1.4a32 32 0 003.3-.2 1.2 1.2 0 001-1.5c0-.7-.7-.6-1.2-.6h-4.1a8.8 8.8 0 01-1.7-.4v-.3h1.2l5.5-.1a1.2 1.2 0 00.1-2.4 10.4 10.4 0 00-1.8-.2H17a4.5 4.5 0 01-1.2-.4v-.3h7a1.2 1.2 0 001-.4c.2-.6.5-1.3.2-1.7s-1-.6-1.6-.6l-6.7.2a3 3 0 01-.5-.1c1.7-.8 1.9-1 .9-2.2l-1.4 1.7a4.2 4.2 0 00-1.4 3 20.4 20.4 0 002 9.2 5.9 5.9 0 003.2 3.1c.5.3.8.3 1.1-.2-.1.8.3.8.9.4 0 .8-.4.9-1 .8-1.1 0-1.5.3-1.4 1.5a8.2 8.2 0 01-.3-1c-.3-1.7-.4-1.8-2.4-2.2l1.2 2.6-.6-.7a26.1 26.1 0 01-3.5-7.8 51.3 51.3 0 01-1.3-5.4A1.6 1.6 0 0112 69a13.2 13.2 0 001.5-1.1l-.1-.2h-.8l.8-1-.1-.2-1.5.6v-.2l2.2-1a4 4 0 00-1.2-.2 3 3 0 00-1.7 2l-.2 2.2a2.1 2.1 0 01-.8-2.1 4.6 4.6 0 013-4.5l-.5 1.3a8.4 8.4 0 001 .7c.8.4 1 .8.5 1.4l-.3.5.2.2 1.3-1c.2-.2.6-.6.5-.8a2 2 0 011-2.3l-3.5-9.5-1.4 1.5c.5.6 1.3 1.1 1.4 1.7a3.9 3.9 0 01-1 4 11.5 11.5 0 00-1 1.1l1.5.5-1.6 1.2.4-1-.9-.1c.5-1.7 2.3-2.5 2.5-4.5a7.8 7.8 0 00-4 5.7 8 8 0 013.1-6.8 11.3 11.3 0 00-1.8 0c-1.3.2-1.4.3-1.1 1.7a8 8 0 010 1.3H9l-.8-3.4-1.7.6c0-.7.3-1 1.3-1h3.5v-.4H7.6c-1 0-1.5.4-1.6 1.4a3.4 3.4 0 01-.1.8l-1.1-1L3 53.7c-.1-.2-.5-.3-.8-.4l.1.9L4.3 57h.5l.9 4.1 1.5 7.2-.2.1-.8-2.6c-.4-2-.7-4-1.3-5.9a15.4 15.4 0 00-3.4-6.2l-1 2v.2c1.5-.6 1.8.4 2.3 1.3A18.5 18.5 0 014 61.6l3 9.5a38 38 0 009 15l.7.8.6.8-.2.2a51.5 51.5 0 01-4.6-5c-1.8-2.5-3.2-5.3-4.8-8-.7-1-1.3-2.2-2.7-2.5a10 10 0 01-1.6-.4 1.1 1.1 0 00-1.6.4h1.4l-1 .8.1.2 1.2.2L2 74l.9.5-.3 1c2.5-1.3 4-1 4.7.5-2.6-1-2.6-1-3-.5 1 .4 2.2.5 2.8 1.2a38.8 38.8 0 013.7 4.6 7.4 7.4 0 01.6 1.7 3.2 3.2 0 00.3.5c-2.5-2.3-5.1-2.7-7.8-1.2l.6-.6a5.7 5.7 0 014-.4 10.5 10.5 0 001.5.2A3.4 3.4 0 008.5 79zm9.8-46.4a8.1 8.1 0 01-3.6 2.9 8.4 8.4 0 00-1 .7l.1.4c.9 0 1.8.3 2.4-.9a2.7 2.7 0 011.1-1 1.9 1.9 0 001-2l.5-1.4.4 1c.4-.2 1-.3 1-.6l1.3-3.2c-1.2.5-2.2.8-3.1 1.3a2 2 0 00-1.3 1.7 3 3 0 01-1.3 2.2l-.7.6.2.2 1.4-.7 1.6-1.2zM41 94.9c-1-.3-1.5-.8-1.5-1.7v-1.1c0-.6-.2-.8-.7-.5a12 12 0 010 1.5 2.1 2.1 0 001.2 2.3 2.3 2.3 0 002.5-.7l.2-.2c0 1.4-.9 2-2.4 1.7-1.2-.2-2.4-1.4-2.4-2.3l.4-3-.2-.2-.5.5h-.1l.3-1h-.2l-.4 1-.5-.9c-.4 1.2.8 1.7.6 2.7l-2.7-2.4c-.4 1 .2 1.3.8 1.7a8.9 8.9 0 011.5 1c.2.2 0 .7 0 1l-.2.1 2.6 2a2.7 2.7 0 001 .5 2.2 2.2 0 003-2 4.6 4.6 0 00-.5-3.3 8.2 8.2 0 00-1.2-1.2l1.2 2.2-.2.1c-.6-1-1.2-2-2.9-2l.9 1-.4 1a5.2 5.2 0 00.7-.2c1-.4 1.4 0 1.4.9a1.4 1.4 0 01-1 1.6l.8-1.1-.2-.1-1.4.8zM28.8 71.2l.7-.2-1.4-1.8H28l.3 1.4c-1-.3-1.3-.9-.7-1.7a3 3 0 00.6-1.3c.3-2.2 1-2.9 3.3-3a4.8 4.8 0 002.1-.5 9.2 9.2 0 004.1-10.8 9.7 9.7 0 01-.4-2.3c0-1.1.3-1.5 1.4-1.6l1.6-.1c-2.1-1.2-3.5-.6-3.8 1.5a14.6 14.6 0 00.1 3.1 11.7 11.7 0 01-1 6.8 8.7 8.7 0 01-.6.9l.8-6c-1.5 2-.7 4.6-2 6.8l.6-.2.1.2a9.9 9.9 0 01-1.9 1.4 12.2 12.2 0 01-2.3.4 3 3 0 00-2.5 2.8 5.4 5.4 0 01-.8 1.8 1.4 1.4 0 00.8 2.2l1 .3a5.4 5.4 0 01-1.6.3 2.4 2.4 0 01-1.4-.8 4.4 4.4 0 01-.4-1.6c-.9 1.7-.4 2.5 1.5 2.7a5 5 0 011.7.4c.6.3.8.1 1-.4zm56-16.2l1.4-.5-.7-.6.2-.4a7.5 7.5 0 000-.8 3 3 0 00-.6.4l-1.2 1.3a6 6 0 00-1.8 3.2l-.7 4.2-.7 3.5-.8 3.4a.5.5 0 010-.5c.7-3.8 2-7.5 1.6-11.5.8.2.5-.5.5-.8.1-4.2.3-8.3.2-12.4a54.9 54.9 0 00-1.7-14.3A38 38 0 0035 2a36.3 36.3 0 00-24.5 18 43.7 43.7 0 00-5.6 22.3c0 2.4.2 4.7.3 7.1V56a3 3 0 00.3.8h.3l.3-3V39.9a35.8 35.8 0 019.9-25.7C24.3 5.3 34.7 1.2 47 2.4a35.9 35.9 0 0123 11 36.6 36.6 0 0110.7 26.3v15.2a4.8 4.8 0 00.3 1.2l-1.4.2.8 1.4-2-.3-.3 1c-.4-2.2-1.7-3-3.3-2.3l1.2 1.5a9.4 9.4 0 01-1.4-1 4.1 4.1 0 00-.9-.4 2.7 2.7 0 00-.1 1.1 1.5 1.5 0 00.7.8 8.3 8.3 0 001.8.6 2.5 2.5 0 012 2.2l.5 3.8h-.3l-.1-1a19.2 19.2 0 00-1-3.3c-.7-1.7-1.2-1.8-3-.7l3.2 3.2c-2-1-2-1-3 0 2.2.4 3.8 2.7 3 4.8a15.6 15.6 0 00-.9 3.6 10 10 0 01-.3 1 18.8 18.8 0 01.2-2.9 2.4 2.4 0 01.2-1c1-1.5.5-2.9-.3-4.2-.2-.4-.7-.6-1.1-.9l-.1.2.6 1c-1.6-1.4-2.3-1.6-3.1-1l.5.1-1 .5a2.8 2.8 0 001 .5 2.3 2.3 0 011 .5 8.5 8.5 0 011.1 1.5 2.5 2.5 0 01.4 1.2 34.7 34.7 0 01-.3 5.2c-.6 3.5-2.6 6.3-4.7 9l-4.3 4.8-.1-.2.4-.5c2-2.4 4-4.7 5.9-7.2a15.7 15.7 0 002.8-10.5 5.3 5.3 0 00-.4-1.2h-.4v4.3a7.8 7.8 0 01-1.3 4.2l-.6-4.3c-.3-1.6-1.5-2.4-2.8-3.1h-.7c1 .6 0 1.1.2 1.6 2.8 1.8 2.8 1.8 3 2.3-1.5-1.4-2.4-1.8-3.8-1.2a9.8 9.8 0 001.8.9c1.4.3 2.3 1.1 2.1 2.5a29.9 29.9 0 01-.8 3.8h-.4a9 9 0 00.5-1.5A10.2 10.2 0 0072 74a1.8 1.8 0 00-2.3-1.5.6.6 0 00-.4.3l.3.4a6.8 6.8 0 011 1.7 8.2 8.2 0 01-.9 5.6c-1.4 3.1-3.8 5.6-6.2 8.1l-1.3 1.4c2-2.9 4.2-5.7 6.2-8.7a16.6 16.6 0 001.4-2.8c.1-.2-.1-.5-.2-.8a2.5 2.5 0 00-.6.6L67.7 81l-.2-.1.4-1a23 23 0 001-2.2 2 2 0 00-1.7-2.7l-.6 5.5-.7-1.6h-.3a10.2 10.2 0 00-.2 1.2 10.2 10.2 0 01-.2 2.9c-1.6 4.3-4 8-8 10.6l-2.6 1.6a2.4 2.4 0 001.3.1 11.2 11.2 0 002-.6l5.4-2.6-2.7 1.8a6.9 6.9 0 002.5-.8 42.6 42.6 0 008.5-6.7c3.2-3.5 5.3-7.8 7.4-12a42.9 42.9 0 002.5-7c.8-2.6 1.1-5.3 2.5-7.6v-.4l-1.2.2.9-1.4a1.7 1.7 0 00.3-.9 1.5 1.5 0 011.1-1.6l.8-.3v-.3zm-63 9l.5.7c.6-1.8.9-2 1.8-2V60h.1l.2.3c1.2-.5 2.5-1 2.7-2.6l-2 1.6c.4-1 1.7-1.4 1-2.6l7.5 2.3a4.7 4.7 0 00.3-.7c.9-3.2 1.8-6.4 2.5-9.6.5-2.3.7-4.7 1.1-7 .3-2 1.8-2 3-1.5a3.9 3.9 0 011.5 1.3 24.7 24.7 0 011.7 2.7c.2.5.5.6 1 .4l3.7-2a52 52 0 0113.4-5.2c3-.6 6.1-1 9.2-1.5l5.7-1.2-.5-.4-7.5-3.8h-.5a11 11 0 00-3.3-2.5l-2.4-.7c.2-.8.7-1 1.6-.6s1.6 1 2.4 1.6c.5-.5.2-.8-.3-1l-7.9-4-2.4-1c-.4-.1-.8 0-.9.5a6.7 6.7 0 01-2.5 4c-1.6 1.4-3.2 2.8-5 4L31 43a1.2 1.2 0 00-.5 1.8l6-4.6a14.5 14.5 0 010 1.5A53.9 53.9 0 0134 54.5c-.7 2-.7 2-2.9 1.5l-4-1a24 24 0 001.7-2.2l1-2.3c1.2-1.8.7-3.7.5-5.6a6.8 6.8 0 00-.8-1.8c-2.8 0-4.4-1.7-5.4-4.2a10.2 10.2 0 01.7-9.2c1.1-2 2.4-3.7 3.7-5.7l-.6-.8a16.3 16.3 0 00-3.7 5.1c-1 2.6-2 5.1-2.8 7.7a8 8 0 00-.5 4.8l3.4 12.5a2.8 2.8 0 010 1.5c-.8 2.6-1.7 5.3-2.4 8a4.4 4.4 0 000 1.2l-.4-.1a6.3 6.3 0 00-4.2-.2c-.5.2-.7.9-1 1.4l1.2.6a24.6 24.6 0 003 0c1.2-.1 1.4-.4 1.2-1.7zm-7.2-29.1c-.6-.8-.2-1.3.4-1.7s1-.7 1.2-1.2c.6-1.2 1-2.6 1.5-3.9a29.2 29.2 0 011.9-3.2l1.4-2c.5-.7.7-1.6 1.3-1.8 2.2-.7 3-3.2 5-4l.2-.2a14.6 14.6 0 011.3-1 34 34 0 012.6-1.7l3.5-1.8 2.9-.4c1-.2 2-.7 3.2-.9a10.8 10.8 0 013.3-.1l6.6 1.2c.4 0 .7.6 1 .6a5.4 5.4 0 013 .6l4 1.7a2.8 2.8 0 011 1.3c.2.5 0 .9-.7.8a10.6 10.6 0 00-1.6 0 3.4 3.4 0 00-2.7 1.2c-.4.6-1 .5-1.6.3l-5-1.9c-.3 0-1 0-1 .2-.3.7.4.5.8.6l4.4 1.6c1.1.5 2.4 1 3 2.2 0 .2.2.3.4.4l10 4.7c1.5.8 1.5.8 1.1 2.5l6.6 3.4c1 .5 2.2 1 3.2 1.7.3.1.4.5.5.8a3.5 3.5 0 01-.7.4l-2.6.6c-.3 2 1.2 1.2 2.2 1.5l-1.6.8.7 1.4-.2.2-1.5-1.1-1 1.2-.1-.1.4-1.5-1.3-.7v-.3l1.6-.1V36a9.7 9.7 0 00-1 .1l-3.9 1c-1.3.3-2.3.5-3.4.9-.3 0-.8.5-.8.8a54.5 54.5 0 00.8 6.3 39 39 0 001.7 4.9c.6 1.4.1 2.2-1.4 2.5l-1.4.2c-.3 1 .3 2.5-1.5 2.6.8.6 1 1.2.4 2a3.2 3.2 0 00-.6 2.2 2.2 2.2 0 01-2.3 2.5h-3a4.6 4.6 0 00-5 4 2 2 0 001 2.5 29 29 0 013.5-2.2 4.7 4.7 0 012.9-.5 3 3 0 003.8-1.6l2.3-3.9c1-1.8 2.5-2 4-.6a20.4 20.4 0 012 2.5 6.7 6.7 0 01.5.7c1-.5 2.3-.2 3-1.4-.7-.9-1.4-1.7-.6-2.8l-.2-.3a1.7 1.7 0 01-1-2.1c.3-1 1.2-.8 1.9-.8l3.1.2V43.6l-1 .2.6 1.6-.3.2-1-1.4-1.4 1 .6-1.5-1.2-1v-.2l1.5.1.6-1.4.1.1.3 1.6h.9a61.9 61.9 0 000-7.2 32.7 32.7 0 00-12.2-22.3c-8.9-7.2-19-9.9-30.3-7-11.9 3-20 10.3-24.4 21.7-2.6 6.6-2.2 13.7-2 20.7.2-1.6-.2-3.4 1.5-4.5-1.2-1 .2-1.7.2-2.5 0-1.3 1.5-1.2 2.1-1.8-1-1.2-.8-1.7 1.2-2.7-1-1-.8-1.7.9-2.5zm36.7 39H51a69.6 69.6 0 01-.2-7.2c.3-3.4 1.8-4.8 5.3-5.3 1.1-.2 2.3-.1 3.4-.3a2 2 0 001.9-2.9c-.2-.6-.3-1 .5-1.2.2 0 .4-.3.6-.5-1.3-.6-2.7-.3-3.5-1.3a18.2 18.2 0 013.2-.7c1.2 0 1-.7 1-1.5a8 8 0 01.2-1 10.5 10.5 0 01-2 .3c-1.3 0-1.6-2-.2-2.7a2.8 2.8 0 01-.2.8c0 .3-.2.8 0 1a1.1 1.1 0 001 .3 2.4 2.4 0 012.1.2 1.4 1.4 0 001.3-.1 1.3 1.3 0 00.3-1.2 13.6 13.6 0 00-.7-2.2 18.9 18.9 0 01-1.5-9.8c0-.2-.3-.6-.5-.6a1.7 1.7 0 00-1 0l-7.5 2.4a3 3 0 00-1 1.2c-.6.6-.8 1.6-1.4 2a5.8 5.8 0 00-2.3 2.5c-.5.9-.8 2-2.3 1.9a13 13 0 00-3.5.9l.8 1.2a.8.8 0 01-1.3 0c-.7-1-1.4-.7-2.2-.3a4.5 4.5 0 004.2 2.8c-1.3.3-1.1 1-.7 1.7l1.1 1.7a4.8 4.8 0 01-2.3-2.4c-.7-1.5-2.2-2.2-3.2-3.5a2.4 2.4 0 00-.6 1.2v5.2a8.1 8.1 0 01-1.4 4c-1.2 2-3.3 3.2-3.4 5.7a2.2 2.2 0 01-.4 1l-1.8 2.5 18 8.4a1.4 1.4 0 00-.4-.8 8.4 8.4 0 01-1.5-4.9c0-.2.4-.5.6-.7l.4.8v.3a5.8 5.8 0 004.4 6.7c0-2.7.2-5.5-2.2-7.8zm3-57v.2a2 2 0 01-.5 0l-3.4-1a19.2 19.2 0 00-13.5-.2 23.8 23.8 0 00-12 8.3 23.2 23.2 0 00-4.1 7.9 26.8 26.8 0 01-1 2.7c-.4 1.2.1 2.1.4 3.1a4.2 4.2 0 00.4-1 43.5 43.5 0 013.7-10 16.7 16.7 0 016-6.7l.8-.4a11.3 11.3 0 01-1.5 1.5l-1.3 1.2 1 2C31 23 34.7 24 36.2 27a2.7 2.7 0 01-1.3-.5c-1.2-1-1.3-1.1-2.5 0l-.5.4-.1-.2 1.4-1.6c-.5-.7-1-.7-1.7 0l-1.6 1.4-.2-.1 1.8-2.2c-1.1-.2-1.1-.2-1.8.6l-2.4 2.9-.6.7c-1.3.7-1.4 2-2 3.2a1.2 1.2 0 00.9-.3 11.4 11.4 0 001-1.4c.7-1 1-1 2-.7a7.9 7.9 0 016-1.8 1.2 1.2 0 01-.7.2c-3 0-5.7 1.8-6 5.7 0 2.3 0 2.3-2.4 3l1.7.1-.6 1c.4.2 1 .6 1.1-.1.4-1.5 1.2-2.9 1.2-4.6a5.8 5.8 0 011-2.9 1.9 1.9 0 011.4-.5c.7 0 .3.7.3 1.1a2.6 2.6 0 000 .6 1.8 1.8 0 01-1 2.4 2.1 2.1 0 00-.7 1c-.5 1.2-.8 2.5-1.2 3.7l-.5.4-.8.6 1.2.6c.2-.5.2-1 .5-1.1a4 4 0 001.2-2.6 2.4 2.4 0 012.1-2.2 3 3 0 002.4-1.7l1.8-3-.6 2c2.7.5 4.7-.8 6.5-2.3l-.5-1.6 1.4 1 .8.4c.8.6 1 .6 1.5-.3l.8-1.7 1.3-2h.3l1.3 3 1.1-.1-1.6-2.8 3 .6.8-.7-3.5-.9a1.4 1.4 0 01-.6-.3c-.6-.5-1.1-.3-1.7.2l-1.1 1.1a10.7 10.7 0 00-1.1-1c-1.2-.7-1.3-1.5-.5-2.8l3.8 1.3V22l-.7-1 .2-.1a6.6 6.6 0 001 .8 1 1 0 001-.1.8.8 0 00-.2-.8c-.3-.4-1-.7-1.2-1.1-.7-1-1.8-1.6-1.5-3.3l-1.3.6c-1.6-1.2-2.5-.2-3.3 1l-.5-.5c-.6 1-1.7 1.7-2 3-.2 1-1.1 1.8-.3 2.9v.3c-1.3-.5-1.3-1-.8-2.3.2-.5.4-1.3.2-1.5a1.8 1.8 0 00-1.6-.4 27.3 27.3 0 00-3.7 1.5 15 15 0 00-1.8 1.3l-.2-.2 2-1.9a1.2 1.2 0 00.4-.8 1 1 0 01.7-1.2c2.3-.8 4.6-1.6 7-2.2 1.2-.4 2.6-.7 3.8.2l.5-.1a3.1 3.1 0 011 0c2.1.6 4.2 1.2 6.3 2 .8.2 1.3.3 1.8-.5a1.4 1.4 0 01.8-.5l3.7-.6c-.8-1.3-2.1-1.6-3.4-2-.3-.1-.8.2-1.2.3a7.8 7.8 0 00-1 .4l-1.1.6zM79 57l.5-.2.2-2a139.1 139.1 0 00-.3-17.5 39.5 39.5 0 00-4.4-15.1A32.2 32.2 0 0057.4 7 35.3 35.3 0 009.3 29.1c-2.6 8.5-2 17.2-1.7 25.8 0 .2.3.4.5.6l.2-.2v-1-15a33.5 33.5 0 01.4-5A34.8 34.8 0 0147 5a34 34 0 0123 12c6.5 7.6 9 16.6 8.6 26.5-.2 4.1-.1 8.3 0 12.4 0 .4.3.8.4 1.2zm-58 6l.3-.7 2.2-7.8a2.8 2.8 0 000-1.4l-3.7-15.4-.9-4.1a3.7 3.7 0 00-.2.4l-4 19.2a1.9 1.9 0 000 .9l2.8 8.4a.9.9 0 00.6.5h3zm3.4-31a15.9 15.9 0 00.7 7 6 6 0 003.3 3.5 1.8 1.8 0 002-.2l4-3.1L49 28.8l1-1c-1 .1-1.4 0-1.4-1 0-.4-.5-1-.8-1.6l-1.4 3.4c-.7 1.3-1 1.4-2.2.6a.8.8 0 00-1.2.1c-1.9 1.6-3.8 3-6.4 2.7a1.7 1.7 0 00-1 .3l-2.5 2.1a5.4 5.4 0 003.6 1.7c-.3 1.8-1 2-2.4 1.5a4.8 4.8 0 01-1.8-1.2 5.2 5.2 0 00-1.5-.8l-1.6 4a1 1 0 01-.8.5c-.3 0-.8-.2-.9-.4a6.1 6.1 0 010-1.5c-1.2-.1-1.4-.3-1.5-1.5a1.4 1.4 0 01-.3 0l-1.1-.7 1-.4c.8-.3 1.7-.4 1.6-1.5 0-1.5 0-3 1-4.2-.6-.7-1-.2-1.3.3l-1.5 2a.8.8 0 01-1.4-.2zm27.2 37.6c1 1.6 2.6 2.8 2.9 4.8l.7 6a15.1 15.1 0 01-3-.7l-13.5-6.6-5.2-2.3-.8 1.5 20 9.4v.7c.5-.4 1-1.1 1.6-.6l-1.6 2-.2-.5-.4.8-.2-.3.3-1.5c-.7.3-1.3 1.8-1 2.2a.8.8 0 00.8.2l1.8-1c.5.8-.4.9-.9 1.2 1.3.6 1.2-.8 1.7-1.2l.2.1-.5 1.6c1-.1.8.5.6 1.1a6.1 6.1 0 00-.1.7v.3l.5-.8.8 1 .1-.6h.2l.7 1.2.5-.9.7 1 .2-.7h1.4v-.3l-1-1.1.8-.5-.3-1h1c-1-.8-3-.2-4 1.2l.3-1.2 2.5-.8-.2-1.9.7-.4.4-1.4-1.4-.4-.7 1-.3-.2.3-1.2a20.2 20.2 0 002.8 0c.4 0 .8-.6.9-1a1.1 1.1 0 00-.5-1 6.6 6.6 0 00-1.6-.3l-.4 1.9a5 5 0 00-1.7 0c-.4.1-.7.6-1 1a37.3 37.3 0 00-.5-6 8.4 8.4 0 00-3.5-5.1zm20.3-4.3h.3a2 2 0 01-.3-.7c-.3-1.9-1.7-3-3-4.2a1.7 1.7 0 00-2.5 0 4.9 4.9 0 00-1 1.2L64 64.4c-1.2 2.3-2.1 2.7-4.6 2.2a6.8 6.8 0 00-5.6 2.3c5 2.2 10 .9 15.2.8-.5-2.6 1.2-1.4 2-1.3zM36.3 86.2a2.3 2.3 0 002.6-2.8c-.4-1.9-1.7-2.7-3.8-2.4a4.5 4.5 0 00-3.9 4.8c.4 2 2.8 3.6 5.2 3.1a25.1 25.1 0 003.4-1c1-.4 1.9-1 2.8-1.3 2-.6 3.8-.5 5.3 1.2a1.4 1.4 0 00.8.5h4.7l-1-.6 2-1.7-.3-.3-1.7.9s-.4-.4-.6-.3c-1.7.6-3-.3-4.2-1.2a5.2 5.2 0 00-4.5-.5 31.3 31.3 0 00-3 1.1c-.8.3-1.6.8-2.4 1a3.9 3.9 0 01-3.2-.1 2 2 0 01-1.3-2.5 2.6 2.6 0 012.5-1.6 1.7 1.7 0 011.4 2.4 9.4 9.4 0 01-.9 1.3zm4.7-9.1l-.2 2c0 1.7.8 2.4 3 2.6 1.1 0 2-1.2 2-2.7l-1.8-.8-1 1.5-.2-.1a6 6 0 00.4-1.2 1 1 0 00-.2-.8l-4.1-1.8-.5 1-.7 1V77c.1-.6.5-1.4.3-1.7s-1.1-.6-1.8-.8a1 1 0 00-.2 0c-1 2.3-1 3 .6 4.1a4.3 4.3 0 002.3.5c1.3-.1 1.4-1.4 2-2.1zm9 20c-4.1 1.4-8.4 1-12.8.6l.3 2.3a3.3 3.3 0 00.4 0h9.7c3.2 0 2.4.6 2.5-2.7a.6.6 0 000-.3zm-1.7-74.9l-.1.3a8.1 8.1 0 001.7 1c1 .4 2.2.6 3.5.9l-.8 1c-.8.9-1.6 0-2.6 0l.8 2c1.8-1.3 3.3-2.6 3.8-4.7a1.6 1.6 0 00-.9-2l-1.9-1-4-1.5-.1.3a6.7 6.7 0 00.6.9l1.2 1.1c.6.7.4 1.4-.6 1.6a5.2 5.2 0 01-.6.1zm10.3 48.5l.1.2 4.4 1.4c.6.2 1.1 1 1.8 1 1.1.2 1 1 1 1.9.3-.2.7-.3.9-.6a1.2 1.2 0 012-.3 2.9 2.9 0 01.9 2.5l.3.6.5-.2a12.9 12.9 0 00-.8-3c-.3-.6-1.6-.8-1-2v-.1l-.6-2zm-10 25.7a12.6 12.6 0 006.2-5c.1 1.7-1.4 2.6-2.3 3.8 2-1 2.9-3 4.3-4.4.2-.3 0-.8 0-1.2l-.7.4.3-.7.4-.7c-.8-.5-1.4-.2-1.6.6a7.7 7.7 0 010 .9c-.2.5-.4.6-1 .1l.9-.5c-.5-.3-.8-.6-1.1-.6-.6 0-.6.6-.5 1 .5 1.5-.3 2.5-1.4 3.4L50.2 95c.7-1.4 1.2-2.9 2.7-3.4.2 0 .4-.4.4-.7s-.2-.4-.4-.4a1.3 1.3 0 00-.6.3 4.3 4.3 0 00-.6.5h-.2L52 90l.1-.6a16.6 16.6 0 00-1.5-1l-.4.4 1.3.8-.3.3-1.4-1.2a8 8 0 01-1.2 7.7zM30 73.6c.2 2 .8 2.9 2.5 3.2 1.2.3 2-.3 2.8-1.7a1.1 1.1 0 000-1 8.3 8.3 0 00-1.6-.9l-1.4 2.2-.1-.1 1-2.5-1.3-.4c-.2-.4-.2-1-.4-1-.7-.4-1.1 0-1.6 1.5h-2.5a1.2 1.2 0 00-1.4 1.1c1.4.5 2.7.8 4-.4zM17 40.8l-.2-.1-.5.8a6 6 0 01-3.6 2.8l-2 .6c-.7.2-1.5 1.8-1.2 2.4a.9.9 0 00.8.3l2.3-.6c-.3.4-.7.8-1 .8-1.7 0-2.2 1-2.3 2.5a12 12 0 01-.3 1.3c.4 0 .8-.1.8-.3a3 3 0 011.5-2.2 44.4 44.4 0 003.3-3 8.1 8.1 0 001-1.4l-.3-.1-1.4 1.5-.3-.3a9 9 0 011.2-1.2c.8-.6 1.6-1 1.8-2.1 0-.6.2-1.2.3-1.7zM75.6 90c-1.8-2.4-5.4-2-7.2.6l2.2.8a17.7 17.7 0 00-3.5 0 16 16 0 00-3 1.3l5.6-.4a17.1 17.1 0 002.5-.5v-.7a7.3 7.3 0 00-1.2-.6c1.6.8 3-.5 4.6-.5zm6.5-13.8L82 76l-2.7 1.3c1.2-1.3 2.5-2.2 4.4-2a2.4 2.4 0 00-3.1-.2c.9-1 1.6-1.1 3-.5.4.3 1 .5 1.2-.1 0-.4-.4-1-.7-1.2a3.8 3.8 0 00-1.5-.3l1-.6a2.7 2.7 0 00-2.8.9c-2 1.9-3 4.5-4.2 7zM29.6 90.6c-.8 0-1-.3-.7-1l.7-2c-1.4-.2-2.4.9-2 2l.9 2.4-.3.2c-.8-1.6-1.8-3-2-4.9h.6c.7-.2 1.2-.5 1-1.2a1.2 1.2 0 00-1.6-.7 1.9 1.9 0 00-1.1 1.6 5.4 5.4 0 003.2 5.7 9 9 0 011.5 1.2l1.6 1.2-2.6-3.5.2-.2 1.4 1.3zM10.2 43.3l.2.3a4.5 4.5 0 004-1.1 12.6 12.6 0 002.7-3.3c-1.2 1-2.1 2.2-3.6 2.6a29 29 0 012.3-2.1 3 3 0 001-2.1 4.5 4.5 0 01.7-1.4l.5-1-.2-.2a6 6 0 01-4.4 3c-.3 0-.6.5-1 .8l.3.3a11.4 11.4 0 001.2-.2 9 9 0 001-.5l1-.4.3.3-4.4 2.6a2 2 0 00-.8.8c0 .2.3.5.5.7zm50.1 47.3l.6-.6c1-1.1 1.5-2.6 2.5-3.8a7.6 7.6 0 001.6-4.9c0-1-.6-1.3-1.6-1l-.2.4.6.3v.2l-1.3-.2.6 1H63l.2 1.7c-.9-.4-.9-.4-1.4.4l1 1.7c-.9-.6-1.5-.7-2-.1a3 3 0 00-.5 1.4v3.5zM40.9 14.1c-.2-1.2-.7-2-1.5-1.9l-3 .6.4 1.5a2.9 2.9 0 01-.8-1 1 1 0 00-1.5-.2L32 14.7l2.6 1.3.4-.1zm-12.6 4.8a7.2 7.2 0 002-.4l3.5-2.3a9.6 9.6 0 00-2.2-1.2c-.4 0-1 .6-1.4.9a4 4 0 01-.6.2c-1.7.6-1.7.7-.4 1.8l.1.3a2.9 2.9 0 01-1-.3c-.7-.5-1.4 0-2 .4a12.9 12.9 0 00-1.2 1.8c1.9.5 3.5.2 3.6-.7zm-18 34.3c0 .6.5 1.8 1 1.8.2 0 .4-.4.7-.7l-1.1-.2-.1-.2a19.2 19.2 0 011.6-1.2c2.6-1.4 2.7-4 3.1-6.4-1 2.1-3 3-5 4l.1.2 1.6-.5-2.1 1.8a4.6 4.6 0 00-.7.8zm21.5.5l1.8-8.1a22 22 0 00-2.1 1 1.2 1.2 0 00-.6.9 5.6 5.6 0 01-1 3.8L29 53zm2.5-9.5c0 3.7-1.1 7-2.1 10.5l-3.3-.9c-.6-.1-.8 0-1 .7l4.7 1a51.2 51.2 0 002.7-13.3l-4.7 3.6.2.3zm14 57.2h-9.4c.3.6-.1 1.5.9 1.5H47c1.1 0 1.2-.2 1.1-1.5zm-2-22.2c-.4 1.4-.9 2.7.4 4a2.3 2.3 0 002.5.4c1.1-.4 1.3-1.4 1.4-2.4l-1.8-.8-.5 1.8H48c.3-1.5.3-2.8-1.7-3zM21 26.5l-.2-.2c1.3 0 2.5-.2 2.6-1.8-1.1 0-2.4-.2-3.2.7a25.9 25.9 0 00-2.4 3.8l.2.2c1.4-1 3.6-.5 4.4-2.6zm13 50.8c-.8 0-1.5 0-2 .2-.3 0-.7.3-.7.4a3.8 3.8 0 00.1 1.9c.8 1.4 3.2 1.3 4.3-.2l-1-2-1 1.5zM21.1 24.1h2.3c.3 0 .6 0 .8-.2l2.7-3.1c-1.4 0-2.5-.5-3.7.4a5 5 0 00-2 3zm7.9 50.7c-2 .1-2 .1-2.2 1.7a2.2 2.2 0 003 2.4 2.5 2.5 0 001-1.2c.1-.2-.3-.7-.5-1a6.2 6.2 0 00-.8-.7l-.9 1.7-.3-.1zm3.2-3c.6-.6.6-1.2 0-1.6A4.6 4.6 0 0031 70a1.4 1.4 0 01-1.2-1.4c0-.8.5-1.1 1.2-1.2l.7-.1c1.1-.3 1.4-.8 1-2a6.6 6.6 0 00-3.8 2.4 1.9 1.9 0 001.6 3c.8 0 1.5.1 1.6 1.1zM45.4 95l1 .5a1.9 1.9 0 002.8-1 4.8 4.8 0 00.2-2c0-.4-.5-.6-.7-1a6.6 6.6 0 00-.3 1 10.7 10.7 0 01-.1 2 1 1 0 01-1.5.6c-.4-.1-.9-.6-.8-1a2.7 2.7 0 01.7-1.4 4.3 4.3 0 011.5-.5l-1-.5 1.2-.8c-.5-.1-.8-.2-.9-.1l-2.1 2 .1-.6a2.9 2.9 0 00-.4 3.7zm-2.7-80.8h1.2c.4 0 .6 0 .7-.2l1.4-2.5c-.9.4-2-.9-2.8.6-.8-1-1.7-.2-2.6-.3l.8 2c0 .2.3.3.3.3a.6.6 0 00.4-.3 2.3 2.3 0 00.1-.6h.2zm-21 53c1.4 0 2.6-.2 3.4-1.5a1.4 1.4 0 000-1.8 2.7 2.7 0 00-1.5-.7c-.2 0-.5.6-.7 1s-.4.8-.7 1c-.8.5-.7 1.2-.6 2zM39 48c1.8 1.6 3.7 1.4 5.5-.3a3.7 3.7 0 012.6-1.1 13 13 0 001.4 0c.3 0 .6-.3.6-.4a2.5 2.5 0 011.8-2.8c-1.4-.5-2-.2-2.2.9-.2 1.7-.3 2-2 1.9a3.5 3.5 0 00-2.9 1 3 3 0 01-2.9 1c-.7-.2-1.3-.2-2-.2zm8-34.2l-.3.8c.6 0 1.2.3 1.5.1a24.9 24.9 0 002.4-1.8l-.2-.2L48 12a2 2 0 00-2.5 2.3zM27 81c1.3.1 2.9 0 2.5 2 2.2-.1 2.5-1 1.1-3l-.5.4.1-.8a2.3 2.3 0 00-3.2 1.4zm9.4 14.7l.3-.3a1.7 1.7 0 01-.4-.3c-1.1-1.6-3-2.8-2.5-5l-.1-.6h.3a.4.4 0 00.1 0v-.3l-1.5.3-2.3-2-.2.2c.5 1 .4 2.2 1.5 3a11.9 11.9 0 012 1.9c1 1 1.9 2 2.7 3.1zm37.1-21.6h.2l.5-3.4-.2-.4a9.6 9.6 0 01-.5-1.4 14.8 14.8 0 00-.2-2c-.2-.4-.7-1.2-1-1.1-.7 0-.5.7-.5 1.3.2 1.2.9 2.2.8 3.5a12.7 12.7 0 001 3.5zM39.8 97.3c-.6-.2-1.4-1-2.5-.2h-.6a3.6 3.6 0 00-1.1-.1 6.8 6.8 0 01-5-.4l-.2.8a1.5 1.5 0 01.5.1l.8.6a6.7 6.7 0 01-.8.6l-1.3.4 1.1.5c1.4.6 1.4.5 2-.7.2-.3.6-.4.9-.6l.2-.2c.2-.8.8-.7 1.4-.7h4.6zm15.3-.8l6.3 2 .6-1.3a.7.7 0 00-.1-.5 3.6 3.6 0 00-3.1-1.1l1.8 1.2c-2-.4-3.7-1-5.5-.3zm-23.6-9c-.2-1-.4-1.8-1.6-2.1-.3-.1-.6-.6-.8-1a6.4 6.4 0 01-.2-1.5c-.1-.8-.5-1.2-1.4-1.2a7 7 0 01-1.7-.3c0 .4.4.7 1 1a2.5 2.5 0 011 1c.3.4 0 .9.3 1.2a6.1 6.1 0 001.2 1.9 10 10 0 002.2 1zM53.8 95l.2.2a49 49 0 004.4-3.1 7.8 7.8 0 001.5-2.6c0-.2-.2-.6-.5-.8s-.6.2-.7.4a18 18 0 01-4.9 6zm29.8-12.1l.2-.5c-1 0-.6-1.7-2-1.5a14.8 14.8 0 00-2.9.3 13 13 0 00-2.5 1.6l.1.3c2.3-1.7 4.8-.4 7.1-.2zM37.2 47.7a11 11 0 012.5-.7c1.5 0 3 .2 4.2-1.2.6-.8 1.6-.6 2.6-.4A2.3 2.3 0 0048 45c.2-.2.3-.7.4-1.1l-.4-.4c-.3 2-1.6 1.3-2.6 1.5a7.6 7.6 0 00-2 .5 7.6 7.6 0 01-4.1.8 4.3 4.3 0 00-1 0 1.3 1.3 0 00-1.1 1.4zm27.9 29a6.5 6.5 0 01-1 0c-1.2-.1-1.8.5-1.5 1.7 0 .3.2.6 0 .9a26.6 26.6 0 01-1.6 2.5 5.2 5.2 0 01-1 .8l.1.1 1.2-.2v.7a9 9 0 001-2.2 1.6 1.6 0 011.7-1.3c1 0 1.3-.4 1.2-1.5l-.1-1.4zM27.5 66h.3v-.7a4.8 4.8 0 010-1.1 2.4 2.4 0 012.2-2c1.5-.3 2-1.3 2.2-2.7l-.8-.2.1.3-2 1.6c-.4.3-1 .3-1.3.7a2.9 2.9 0 00-1 1.4 12.8 12.8 0 00.3 2.7zm29.3 31.8l-3.2-.6v.2l2.2 1.7a1.6 1.6 0 00.9.3c.2 0 .3-.5.4-.7 1.4 1 1.4 1 2.5-.2l-3-1.3-.2.2zm-1.5-83.5c-2.8-1.3-5.8-.8-6.1.9l.8-.4.2.6 1.4-1-.5 1 .1.3zM40 83.5c1.4-.6 1.4-1.3.1-3.5l-1 1 .1-1H36a10 10 0 012.5 1.1 10.7 10.7 0 011.6 2.4zm21.1-6.6a2.3 2.3 0 00-.9-2l-.4-.5c0-1.1-.9-1.7-2.1-1.4l1.2 1.5c-.8.6-.1 1.4.1 1.9.4.7 1.3.6 2.1.5zm-24.6 7.7a1.3 1.3 0 00-1.2-1.4 1.9 1.9 0 00-1.6 1.8c0 .5.2 1 .9 1a1.7 1.7 0 001.9-1.4zM17.2 66v1.4l4-.2v-1.2zm24.7-49.6a22.8 22.8 0 00-7.3 2.2c-.3.1-.4.4-.6.6l.2.2 2.4-1c1.6-.8 3.8-.4 5.3-2zm-9 43.2c-.2 1.9-1.8 2.7-3 3.9 1.7-.2 3.2-.6 3.8-2.4.3-.7.3-1.3-.7-1.5zm3 36.2a5.7 5.7 0 01-2.9-2.6 9.1 9.1 0 00-1-1.8 3.2 3.2 0 00-1-.8.6.6 0 00-.6.2 1 1 0 000 .7c.2.2.5.2.7.3 1.1.5 1.2.7.4 1.6 1.6.5 2.5 2.4 4.3 2.4zm11.4-73.6l-3-1c-.5 1.3-.5 1.3 1.7 2.6zm-10.6 77.8c0 .6.5.7 1 .7h10.5a1.9 1.9 0 00.6-.2l-9.9-.2a16.8 16.8 0 01-2.2-.3zm-7-3.1c-2.2 0-2.7.3-3 1.4l1.8-.5.1.2-1 .8.1.3 3.6-1a1.2 1.2 0 00-.8-.4h-.9zm52.6-16.5a1.6 1.6 0 00-2-1 9.5 9.5 0 00-5.2 3.6 7.5 7.5 0 00-.5.8 1 1 0 00.5-.3c1.4-1 2.8-2.2 4.2-3.1.6-.4 1.3-.8 2-.1.2.2.6 0 1 0zm-57 4.5c-.2-.4-.5-.9-.8-1-.8-.1-1.5.7-1.6 1.6a1 1 0 001.3 1c.7-.1 1-.7 1.2-1.6zm50-.6a5.6 5.6 0 015.7-.5c.2-1 0-1.3-.8-1.4a5.6 5.6 0 00-4.8 1.9zm-61.7-7l-1.3-7.8c-1 .5-.7 3.2 1.3 7.8zm30.1 10l-.1-.3h-.9l-2.5 1.8 1.2-.2a1.8 1.8 0 012 1c.5.8 0 1.1-.5 1.7.4 0 .8-.1 1-.3a1.4 1.4 0 000-1.2 14 14 0 00-1.1-1.8zm-1.8-5c.6.7.5 1.6 1.5 1.5l2.7-.2-.8-1.6-.7 1h-.2v-.6zM57 77a5.6 5.6 0 000 1.4l.7.3c.2 0 .7-.4.7-.6a5.3 5.3 0 00-.3-2c-.1-.1-1 0-1.6 0zM31.1 29.7c-1 .1-2 2.2-1.6 3.6a12.1 12.1 0 001.3-1 1.5 1.5 0 00.5-.8 17.7 17.7 0 00-.2-1.8zm-8.3 54.2c1.4-.4 2-1 1.8-1.7a1.4 1.4 0 00-1.8-.6c-.7.2-1 .7-.8 1.6l1-.8h.2zm4.5.8c.3-1.2-.1-1.7-1.9-2.3l-.5 1c.7.8 1.4 1.5 2.4 1.3zm8.8-48l-2.8-1.2-1.1-.7a3 3 0 00-1 0v.2l4.2 2.5zm25.6 38a.2.2 0 000 .3l.8 1.5s.7-.2.6-.3c0-.5 0-1.2-.3-1.5a7.6 7.6 0 00-1.8-1.1l-.2.3zM34.9 98c-.4 1.7 0 2 1.7 1.6V98zm21.4-24.3a8.7 8.7 0 00.3 1.4c.1.3.5.7.7.6a1.3 1.3 0 00.8-.7c.3-1.1-.5-1.7-1.8-1.3zm-4 25.6v-2c-1.6 0-1.9.3-1.5 2zM38.5 53.9h.4l.2-3.8c-1.3.5-1.5 2-.6 3.8zM2.6 59.6l-.2.1.9 2-.9.8c1.8.2 1.7 1.8 2.4 2.8a16 16 0 00-2.2-5.7zm26-.9l-.2-.1-2.8 2.1a1.3 1.3 0 00-.4 1.7l1.2-1.4 2.2-2.3zm8.8-13.2l.1.2h2a3 3 0 001.2-.4 7.5 7.5 0 001.2-1c-1.4.7-3.1.3-4.5 1.1zm-3 19a1 1 0 00-1 1.2 8.7 8.7 0 01-.4 1.9c1.2-.3 1.6-1.3 1.4-3.2zm13.5 20l-.1.3 2.7 1 .1-.2-.5-1.5zm5 13l-.2.2c.4.6-.5 1.5.7 1.8.8.3 1-.4 1.3-.8zm-27.5 1.1c.5-.4 1-.6 1-1 .4-1 .7-2 2.2-1.7-1.3-.6-2.2-.3-2.5.6-.1.7-.4 1.3-.7 2.2zm15.3-9.4l2.5 1.6a1.1 1.1 0 00-.5-1.5 1.6 1.6 0 00-2 0zm3.2 6.4h.1l.5-3.4-1-.2zm-2.7-53.1l-.2-.3-3.4 2c2 .4 2.5-1.2 3.6-1.7zM25.9 63.9a3.7 3.7 0 01-1.6 3.7l.6 1c.4-1.7 1.8-3 1-4.7zm14.7-45.8l-.4-.1-2.5.6 1.5.8zm16.6 55c0-1.4-.5-1.7-2.1-1.6l1.1.5-.3.6zM24.8 89.8h.1l-.3-2.2-1.4-.4zM11 55.3l-1.9-2V55zm30.1 48.2v.3a11.6 11.6 0 004.7-.3zM48.5 47c-.6-.1-1.2 0-1.7-.2-.8-.2-1.2.2-1.4.8.9-.8 2.2.5 3.1-.6zm17.7 29.2c-.9.5-.7 1.2-.6 1.9 0 .2.3.4.6.6zm-34-6.4l.8-1.2-1-.6c-.7 1.3-.7 1.3.3 1.8zM27 67.6c-1.4 1-1.5 2.6-.2 3.3-1-1.2-.3-2.2.3-3.3zm4.2 16.6l-.5-.5-1 .8.7.7zm27.6-11.8l.3-.4-1.8-1.6c-.2 1.3.5 2 1.5 2zM29.9 96.7l.6-1.5-.8-.5c-1 .9 0 1.3.2 2zm31-23.4l.2-.2c-.1-1-.7-1.4-1.8-1.5zM41.5 83.4l-1 .9a9 9 0 01-.8.5l.2.2c1.5-.3 2-.8 1.6-1.6zm3.2 13.7l.2-.4-.7-.4a6 6 0 00-1.3.3v.4zm-4-55.4l-.3-.2-2.6 2c1.6 0 1.9-1.4 2.8-1.8zm32 46.3v.2l2.5.3v-.3zm-16-16.8v-.4l-1.5-.7c0 1.3.8 1 1.4 1.1zm-18.5-29l.3.3 1.2-1.6c-1 0-1.5.4-1.6 1.3zM40 93.3l-.2.2c.2.2.5.5.7.5a5 5 0 001-.7l-.3-.3zM42 43.5l-.2-.3a1.4 1.4 0 00-1.5 1l.2.2zm-1.8 46l-.3-.2c-.2.1-.6.2-.8.5s0 .5 0 .8h.3zm31.3-2l2.4-.6c-1-.5-1.7 0-2.4.7zM52.9 42l-.2-.5-1.7.8.1.4zm-5 51.6l-1.3 1.2c1 .3 1.4-.1 1.3-1.2zm-16 2v.4l2.2.5V96z"/><path d="M64.8 28c.2.2.5.3.5.5a4.4 4.4 0 01.3 1 2.3 2.3 0 01-1 0 18.6 18.6 0 01-1.8-.7 1.6 1.6 0 012-.8zM64.7 41H66l.3-1.4a1.7 1.7 0 002.5 1.4v.3l-1.4.7.8 1.4-.2.1-1.4-1-1 1.1-.3-.1.5-1.5-1.3-.7zM68 57.4l.6-1.7-1.3-.8H69l.3-1.4.3-.1.4 1.4h1.5c-1.1.7-1.7 1.5-.8 2.8h-.3l-1-1.3-1.2 1.1zM70.6 48.7l-.1-1.5.3-.1.8 1.3 1.4-.5v.2l-1 1.2.8 1.4-.1.2-1.3-1-1 1.5-.2-.1.3-1.7-1.5-.4V49zM54.8 43.3a15.5 15.5 0 001.6-.5l2.4-1a9 9 0 012.4-.8c.7 0 1 .6.7 1.3l-1.5 2.4-1.3-.4.6-1.3-.2-.2-2.2 1v-.1l1-1-1.4.5c-1.4.5-1.4.6-.7 1.8z"/><path d="M61.1 27.6c1.8 1.4 2 2.8.6 4.5h5.9l-1.8-.6v-.2H69l-.8 1.3c1.1 0 2.3-.6 3.4 0a68.8 68.8 0 00-24 6.9l-4-4.6a27.2 27.2 0 007.6-4 37.6 37.6 0 003.6-2.7 8.1 8.1 0 001.5-2c.8-1.5.7-1.5 2.2-1.2l1.5.3-.7.7-.7.5h2.8l-.7-.8 1.6.7zm-.5 5a4 4 0 01-3.1-1.6c-.9-1-.4-2.3-.3-3.5-3.9 3-7.8 6-12.4 7.7.9 1 1.7 1.9 2.3 2.8.4.7.8.6 1.4.3a45.5 45.5 0 019.9-3.7l8-1.9a3.6 3.6 0 00-1.4-.1 37 37 0 00-9 2.2c-2.6.9-5 2.4-7.6 2.6l-1.7-2.1 7.9-5 1.2 3.6-2 1 .2.1zm-6.9-.9a6 6 0 00-1 1.4 1 1 0 00.5 1A5.4 5.4 0 0055 34zm-.9 2.9l-.8-1.4-.5.2-.3.1c.8 1.7.8 1.7 1.6 1zm-3.2 1.6l-.6-1.4-1 .6.7 1.2zm1-2.2l-.8.4c.5 1.4.6 1.4 1.4 1zm8-8.3c-1.1-.1-1.4 0-1.6 1.2zm2 4.3l.2-.3-.3-1.2-.7.9z"/><path d="M45.3 42.4a21 21 0 00-1.7-3 22 22 0 00-2.8-2.5c.6-.7 1.1-.8 2-.1a9.4 9.4 0 012.9 3.6l.4.9 3.8-1.8a56.7 56.7 0 0119-5.3 35.6 35.6 0 003.8-.7 1.2 1.2 0 011.6.5c-5 1.1-10.2.8-15 2.7l-14 5.7zM34 21.4a4 4 0 013.5-1.4c.5 0 1 .4.9 1.2-1.7-2-3-.4-4.4.2zM40.9 21.2c0-1 2.1-3.4 3-3.7zM79.5 57.9a1.7 1.7 0 01.8 2c-.3 2.3-.6 4.5-1.1 6.8a35.4 35.4 0 01-9.4 18 59 59 0 01-12.5 9.7l-.6.2 4.4-3.4v.2l.5-.1 4.4-3.6a34.8 34.8 0 0012-18.2 40 40 0 001.5-10.4v-1.2zM84.8 55c-1.5 1.5-2 3.5-2.5 5.5a9.6 9.6 0 011.5-4.7 4 4 0 011-.8zM13 79.8L11.6 77A44.3 44.3 0 017 60a11.9 11.9 0 01.3-2.1h.5c.1.6.6 1.4.4 2a14.6 14.6 0 00.7 7.6l3.8 11 .5 1zM13 81c3 4.2 7 7.6 10.9 11-4-3.3-8.2-6.4-10.9-11zM22.6 54.2c-3.2 0-2.7 2.5-3.2 4.4v-3.9a.9.9 0 01.5-.6l2.5-.2zM18.8 58.8l-.4-3.1a1.3 1.3 0 00-1.2-1.4l-1.6-.2a1.4 1.4 0 01.2-.2c2.9-.3 3.1 0 3.1 2.8v2zM19.7 49l.3 3.2c0 .7.3 1 1 1h1.8v.3a21.7 21.7 0 01-2.5-.2 1 1 0 01-.6-.7v-3.7zM56.1 82.5a5 5 0 01.8.5l.2.6a1 1 0 01-.7.4 6.6 6.6 0 01-1.3-.2zM57.3 86.2c0-.3 0-.6.2-.7a7 7 0 011.4-.5l.2.4a.4.4 0 01-.3.3l-1.5.5zM58.3 83.6c-1.3-.7-1.3-1-.2-1.7zM64.2 77c.2.3.6.7.6 1a.7.7 0 01-.9 1 1.5 1.5 0 01-.9-1c0-.3.5-.7.7-1zM58.2 32.8c-1 .4-1.6.2-2.2-.8a2.3 2.3 0 010-3c.6 1.4.3 3.1 2.2 3.8z"/></svg>